<?xml version="1.0" encoding="UTF-8" standalone="no"?>
<!-- Created with Inkscape (http://www.inkscape.org/) -->

<svg
   width="210mm"
   height="297mm"
   viewBox="0 0 210 297"
   version="1.1"
   id="svg5"
   xml:space="preserve"
   inkscape:version="1.2.1 (8a69933317, 2022-10-28, custom)"
   sodipodi:docname="pieza_aspa.svg"
   xmlns:inkscape="http://www.inkscape.org/namespaces/inkscape"
   xmlns:sodipodi="http://sodipodi.sourceforge.net/DTD/sodipodi-0.dtd"
   xmlns="http://www.w3.org/2000/svg"
   xmlns:svg="http://www.w3.org/2000/svg"><sodipodi:namedview
     id="namedview7"
     pagecolor="#ffffff"
     bordercolor="#000000"
     borderopacity="0.25"
     inkscape:showpageshadow="2"
     inkscape:pageopacity="0.0"
     inkscape:pagecheckerboard="0"
     inkscape:deskcolor="#d1d1d1"
     inkscape:document-units="mm"
     showgrid="false"
     showguides="true"
     inkscape:zoom="5.615937"
     inkscape:cx="286.14993"
     inkscape:cy="107.99623"
     inkscape:window-width="1846"
     inkscape:window-height="1016"
     inkscape:window-x="0"
     inkscape:window-y="0"
     inkscape:window-maximized="1"
     inkscape:current-layer="layer2"><sodipodi:guide
       position="72.81821,287"
       orientation="0,1"
       id="guide9"
       inkscape:locked="false"
       inkscape:label=""
       inkscape:color="rgb(0,134,229)" /><sodipodi:guide
       position="80,277"
       orientation="-1,0"
       id="guide218"
       inkscape:locked="false"
       inkscape:label=""
       inkscape:color="rgb(0,134,229)" /><sodipodi:guide
       position="360,252"
       orientation="0,1"
       id="guide220"
       inkscape:locked="false"
       inkscape:label=""
       inkscape:color="rgb(0,134,229)" /><sodipodi:guide
       position="97,284.9651"
       orientation="-1,0"
       id="guide222"
       inkscape:locked="false"
       inkscape:label=""
       inkscape:color="rgb(0,134,229)" /><sodipodi:guide
       position="43.532361,269.5"
       orientation="0,1"
       id="guide224"
       inkscape:locked="false"
       inkscape:label=""
       inkscape:color="rgb(0,134,229)" /></sodipodi:namedview><defs
     id="defs2" /><g
     inkscape:groupmode="layer"
     id="layer2"
     inkscape:label="Capa 2"><g
       id="g408"
       transform="matrix(9.4365656,0,0,9.97366,-696.95828,-88.293445)"><path
         style="fill:none;stroke:#000000;stroke-width:0.05;stroke-dasharray:none;stroke-opacity:1"
         d="m 80.502449,11.560385 0.11134,-1.440166 c 0,0 -0.0032,-0.103577 0.07882,-0.1784447 0.06512,-0.059432 0.162042,-0.05781 0.162042,-0.05781 0,0 0.114203,0.026174 0.142525,0.064458 0.04082,0.055176 0.06184,0.1634227 0.06184,0.1634227 l 0.16623,1.444766 0.314698,-0.0014 c 0,0 0.07937,0.01136 0.12395,0.06763 0.04458,0.05627 0.05227,0.141201 0.05227,0.141201 0,0 -0.0049,0.036 -0.04838,0.104371 -0.04343,0.06837 -0.100459,0.07386 -0.100459,0.07386 l -0.395354,-0.0046 -0.119114,1.271636 c 0,0 -0.01908,0.05708 -0.0563,0.0945 -0.06887,0.0617 -0.147608,0.03578 -0.147608,0.03578 0,0 -0.08144,0.0085 -0.108811,-0.01736 -0.04451,-0.04201 -0.06953,-0.09457 -0.06953,-0.09457 l -0.135773,-1.265425 -0.373496,0.0021 c 0,0 -0.07168,0.02604 -0.132461,-0.04472 -0.06078,-0.07076 -0.05608,-0.176535 -0.05608,-0.176535 0,0 0.01082,-0.07099 0.05268,-0.11217 0.04187,-0.04118 0.132139,-0.05466 0.132139,-0.05466 z"
         id="path282"
         sodipodi:nodetypes="ccscscccscccccccscccscscc" /><circle
         style="fill:none;stroke:#000000;stroke-width:0.0499999;stroke-dasharray:none;stroke-opacity:1"
         id="path1109"
         cx="80.185539"
         cy="11.750625"
         r="0.038929138" /><circle
         style="fill:none;stroke:#000000;stroke-width:0.0499999;stroke-dasharray:none;stroke-opacity:1"
         id="path1113"
         cx="80.849487"
         cy="11.761633"
         r="0.16681041" /><circle
         style="fill:none;stroke:#000000;stroke-width:0.0499999;stroke-dasharray:none;stroke-opacity:1"
         id="circle1142"
         cx="80.410904"
         cy="11.750625"
         r="0.038929138" /><circle
         style="fill:none;stroke:#000000;stroke-width:0.0499999;stroke-dasharray:none;stroke-opacity:1"
         id="circle1144"
         cx="81.324928"
         cy="11.750625"
         r="0.038929138" /><circle
         style="fill:none;stroke:#000000;stroke-width:0.0499999;stroke-dasharray:none;stroke-opacity:1"
         id="circle1146"
         cx="81.518219"
         cy="11.750625"
         r="0.038929138" /><circle
         style="fill:none;stroke:#000000;stroke-width:0.0499999;stroke-dasharray:none;stroke-opacity:1"
         id="circle1148"
         cx="80.850838"
         cy="11.245645"
         r="0.038929138" /><circle
         style="fill:none;stroke:#000000;stroke-width:0.0499999;stroke-dasharray:none;stroke-opacity:1"
         id="circle1150"
         cx="80.850838"
         cy="11.044045"
         r="0.038929138" /><circle
         style="fill:none;stroke:#000000;stroke-width:0.0499999;stroke-dasharray:none;stroke-opacity:1"
         id="circle1152"
         cx="80.850838"
         cy="10.849889"
         r="0.038929138" /><circle
         style="fill:none;stroke:#000000;stroke-width:0.0499999;stroke-dasharray:none;stroke-opacity:1"
         id="circle1154"
         cx="80.850838"
         cy="10.637789"
         r="0.038929138" /><circle
         style="fill:none;stroke:#000000;stroke-width:0.0499999;stroke-dasharray:none;stroke-opacity:1"
         id="circle1156"
         cx="80.850838"
         cy="10.448532"
         r="0.038929138" /><circle
         style="fill:none;stroke:#000000;stroke-width:0.0499999;stroke-dasharray:none;stroke-opacity:1"
         id="circle1158"
         cx="80.850838"
         cy="10.258171"
         r="0.038929138" /><circle
         style="fill:none;stroke:#000000;stroke-width:0.0499999;stroke-dasharray:none;stroke-opacity:1"
         id="circle1160"
         cx="80.850838"
         cy="12.194345"
         r="0.038929138" /><circle
         style="fill:none;stroke:#000000;stroke-width:0.0499999;stroke-dasharray:none;stroke-opacity:1"
         id="circle1162"
         cx="80.850838"
         cy="12.394782"
         r="0.038929138" /><circle
         style="fill:none;stroke:#000000;stroke-width:0.0499999;stroke-dasharray:none;stroke-opacity:1"
         id="circle1164"
         cx="80.850838"
         cy="12.594828"
         r="0.038929138" /><circle
         style="fill:none;stroke:#000000;stroke-width:0.0499999;stroke-dasharray:none;stroke-opacity:1"
         id="circle1166"
         cx="80.850838"
         cy="12.791515"
         r="0.038929138" /><circle
         style="fill:none;stroke:#000000;stroke-width:0.0499999;stroke-dasharray:none;stroke-opacity:1"
         id="circle1168"
         cx="80.850838"
         cy="12.98749"
         r="0.038929138" /><circle
         style="fill:none;stroke:#000000;stroke-width:0.0499999;stroke-dasharray:none;stroke-opacity:1"
         id="circle1170"
         cx="80.850838"
         cy="13.188721"
         r="0.038929138" /><circle
         style="fill:none;stroke:#000000;stroke-width:0.0499999;stroke-dasharray:none;stroke-opacity:1"
         id="circle1172"
         cx="80.850838"
         cy="10.065579"
         r="0.038929138" /></g><path
       style="fill:none;stroke:#000000;stroke-width:0.0499999"
       d="M 79.22244,9.2046916 H 97.844384 V 46.13112 H 79.128399 Z"
       id="path280" /><path
       style="fill:none;stroke:#000000;stroke-width:0.48507;stroke-dasharray:none;stroke-opacity:1"
       d="m 85.304361,27.01842 1.050667,-14.363726 c 0,0 -0.0302,-1.033042 0.74379,-1.779747 0.614509,-0.592754 1.52912,-0.576577 1.52912,-0.576577 0,0 1.077684,0.26105 1.344946,0.642882 0.385201,0.550307 0.583558,1.629922 0.583558,1.629922 l 1.56864,14.409605 2.969668,-0.01396 c 0,0 0.748981,0.113301 1.169663,0.674519 0.420682,0.561218 0.493249,1.408291 0.493249,1.408291 0,0 -0.04624,0.359051 -0.456541,1.04096 -0.40983,0.6819 -0.947988,0.736655 -0.947988,0.736655 l -3.730784,-0.04588 -1.124027,12.682865 c 0,0 -0.18005,0.569297 -0.531279,0.942511 -0.649896,0.615375 -1.392912,0.356858 -1.392912,0.356858 0,0 -0.768514,0.08478 -1.026803,-0.173143 -0.420021,-0.418993 -0.656124,-0.943209 -0.656124,-0.943209 l -1.281231,-12.620919 -3.524519,0.02095 c 0,0 -0.676413,0.259714 -1.249977,-0.446022 -0.573555,-0.705736 -0.529203,-1.7607 -0.529203,-1.7607 0,0 0.102104,-0.70803 0.497118,-1.118746 0.395109,-0.410715 1.246939,-0.54516 1.246939,-0.54516 z"
       id="path283"
       sodipodi:nodetypes="ccscscccscccccccscccscscc" /></g><g
     inkscape:label="Capa 1"
     inkscape:groupmode="layer"
     id="layer1" /></svg>
