<?xml version="1.0" encoding="UTF-8" standalone="no"?>
<!-- Created with Inkscape (http://www.inkscape.org/) -->

<svg
   width="210mm"
   height="297mm"
   viewBox="0 0 210 297"
   version="1.1"
   id="svg5"
   xml:space="preserve"
   inkscape:version="1.2.1 (9c6d41e, 2022-07-14)"
   sodipodi:docname="pieza_aspa.svg"
   xmlns:inkscape="http://www.inkscape.org/namespaces/inkscape"
   xmlns:sodipodi="http://sodipodi.sourceforge.net/DTD/sodipodi-0.dtd"
   xmlns="http://www.w3.org/2000/svg"
   xmlns:svg="http://www.w3.org/2000/svg"><sodipodi:namedview
     id="namedview7"
     pagecolor="#ffffff"
     bordercolor="#000000"
     borderopacity="0.25"
     inkscape:showpageshadow="2"
     inkscape:pageopacity="0.0"
     inkscape:pagecheckerboard="0"
     inkscape:deskcolor="#d1d1d1"
     inkscape:document-units="mm"
     showgrid="false"
     showguides="true"
     inkscape:zoom="31.768537"
     inkscape:cx="301.36736"
     inkscape:cy="42.82539"
     inkscape:window-width="1862"
     inkscape:window-height="1016"
     inkscape:window-x="0"
     inkscape:window-y="0"
     inkscape:window-maximized="1"
     inkscape:current-layer="layer2"><sodipodi:guide
       position="81.079355,287.13421"
       orientation="0,1"
       id="guide9"
       inkscape:locked="false"
       inkscape:label=""
       inkscape:color="rgb(0,134,229)" /><sodipodi:guide
       position="81.364433,283.63056"
       orientation="0,1"
       id="guide61"
       inkscape:locked="false"
       inkscape:label=""
       inkscape:color="rgb(0,134,229)" /><sodipodi:guide
       position="79.949611,285.97376"
       orientation="-1,0"
       id="guide63"
       inkscape:locked="false"
       inkscape:label=""
       inkscape:color="rgb(0,134,229)" /><sodipodi:guide
       position="81.736166,285.7876"
       orientation="-1,0"
       id="guide65"
       inkscape:locked="false"
       inkscape:label=""
       inkscape:color="rgb(0,134,229)" /><sodipodi:guide
       position="80.850838,283.41864"
       orientation="-1,0"
       id="guide67"
       inkscape:locked="false"
       inkscape:label=""
       inkscape:color="rgb(0,134,229)" /><sodipodi:guide
       position="82.106082,285.25"
       orientation="0,1"
       id="guide69"
       inkscape:locked="false"
       inkscape:label=""
       inkscape:color="rgb(0,134,229)" /><sodipodi:guide
       position="82.035412,285.6929"
       orientation="0,-1"
       id="guide71"
       inkscape:locked="false" /><sodipodi:guide
       position="80.849998,287.42227"
       orientation="0,-1"
       id="guide207"
       inkscape:locked="false" /><sodipodi:guide
       position="80.656377,283.34037"
       orientation="0,-1"
       id="guide209"
       inkscape:locked="false" /><sodipodi:guide
       position="79.600252,285.07333"
       orientation="1,0"
       id="guide211"
       inkscape:locked="false" /><sodipodi:guide
       position="82.10608,285.25001"
       orientation="1,0"
       id="guide213"
       inkscape:locked="false" /><sodipodi:guide
       position="79.190781,287"
       orientation="1,0"
       id="guide215"
       inkscape:locked="false" /><sodipodi:guide
       position="82.501827,286.28959"
       orientation="1,0"
       id="guide217"
       inkscape:locked="false" /><sodipodi:guide
       position="80.850836,287.85535"
       orientation="0,-1"
       id="guide219"
       inkscape:locked="false" /><sodipodi:guide
       position="80.577951,282.96654"
       orientation="0,-1"
       id="guide221"
       inkscape:locked="false" /></sodipodi:namedview><defs
     id="defs2" /><g
     inkscape:groupmode="layer"
     id="layer2"
     inkscape:label="Capa 2"><path
       style="fill:#ff0000;stroke:#ff0000;stroke-width:0.277188px;stroke-linecap:butt;stroke-linejoin:miter;stroke-opacity:1"
       d="m 79.912991,9.8058231 1.902313,0.012488 0.0048,3.6101119 -1.907019,-0.0035 z"
       id="path2026" /><path
       style="fill:#00ff00"
       d="m 80.862321,9.9167037 c 0,0 0.181895,0.022015 0.210078,0.1929703 0.02818,0.170958 0.128608,1.04718 0.128608,1.04718 l 0.04352,0.376427 0.288372,3.32e-4 c 0,0 0.105744,0.03078 0.137097,0.08376 0.03135,0.05299 0.04938,0.127172 0.04938,0.127172 0,0 -0.0065,0.06473 -0.04559,0.121977 -0.03908,0.05725 -0.09807,0.09514 -0.123906,0.09332 -0.02584,-0.0018 -0.358775,-0.0053 -0.358775,-0.0053 l -0.09339,0.978799 -0.0193,0.232549 c 0,0 -0.03783,0.119658 -0.136624,0.142155 -0.09879,0.0225 -0.19458,-0.01793 -0.19458,-0.01793 0,0 -0.09044,-0.08777 -0.0913,-0.12065 -7.65e-4,-0.03288 -0.05048,-0.517685 -0.05048,-0.517685 l -0.0726,-0.674766 -0.335447,-4.59e-4 c 0,0 -0.112205,0.03155 -0.174563,-0.0806 -0.06236,-0.112141 -0.02606,-0.207851 -0.02606,-0.207851 0,0 0.0142,-0.0507 0.05036,-0.0766 0.03617,-0.0259 0.109245,-0.05151 0.109245,-0.05151 l 0.05677,-0.009 0.282667,-0.01046 0.08825,-1.069385 0.02596,-0.352779 c 0,0 0.02439,-0.08373 0.0494,-0.111254 0.025,-0.02752 0.08683,-0.06102 0.08683,-0.06102 l 0.05476,-0.01895 0.03504,-0.00543 z"
       id="path2988" /><g
       id="g408"
       transform="translate(4.1442369)"><path
         style="fill:none;stroke:#000000;stroke-width:0.05;stroke-dasharray:none;stroke-opacity:1"
         d="m 80.502449,11.560385 0.11134,-1.440166 c 0,0 -0.0032,-0.103577 0.07882,-0.1784447 0.06512,-0.059432 0.162042,-0.05781 0.162042,-0.05781 0,0 0.114203,0.026174 0.142525,0.064458 0.04082,0.055176 0.06184,0.1634227 0.06184,0.1634227 l 0.16623,1.444766 0.314698,-0.0014 c 0,0 0.07937,0.01136 0.12395,0.06763 0.04458,0.05627 0.05227,0.141201 0.05227,0.141201 0,0 -0.0049,0.036 -0.04838,0.104371 -0.04343,0.06837 -0.100459,0.07386 -0.100459,0.07386 l -0.395354,-0.0046 -0.119114,1.271636 c 0,0 -0.01908,0.05708 -0.0563,0.0945 -0.06887,0.0617 -0.147608,0.03578 -0.147608,0.03578 0,0 -0.08144,0.0085 -0.108811,-0.01736 -0.04451,-0.04201 -0.06953,-0.09457 -0.06953,-0.09457 l -0.135773,-1.265425 -0.373496,0.0021 c 0,0 -0.07168,0.02604 -0.132461,-0.04472 -0.06078,-0.07076 -0.05608,-0.176535 -0.05608,-0.176535 0,0 0.01082,-0.07099 0.05268,-0.11217 0.04187,-0.04118 0.132139,-0.05466 0.132139,-0.05466 z"
         id="path282"
         sodipodi:nodetypes="ccscscccscccccccscccscscc" /><circle
         style="fill:none;stroke:#000000;stroke-width:0.0499999;stroke-dasharray:none;stroke-opacity:1"
         id="path1109"
         cx="80.185539"
         cy="11.750625"
         r="0.038929138" /><circle
         style="fill:none;stroke:#000000;stroke-width:0.0499999;stroke-dasharray:none;stroke-opacity:1"
         id="path1113"
         cx="80.849487"
         cy="11.761633"
         r="0.16681041" /><circle
         style="fill:none;stroke:#000000;stroke-width:0.0499999;stroke-dasharray:none;stroke-opacity:1"
         id="circle1142"
         cx="80.410904"
         cy="11.750625"
         r="0.038929138" /><circle
         style="fill:none;stroke:#000000;stroke-width:0.0499999;stroke-dasharray:none;stroke-opacity:1"
         id="circle1144"
         cx="81.324928"
         cy="11.750625"
         r="0.038929138" /><circle
         style="fill:none;stroke:#000000;stroke-width:0.0499999;stroke-dasharray:none;stroke-opacity:1"
         id="circle1146"
         cx="81.518219"
         cy="11.750625"
         r="0.038929138" /><circle
         style="fill:none;stroke:#000000;stroke-width:0.0499999;stroke-dasharray:none;stroke-opacity:1"
         id="circle1148"
         cx="80.850838"
         cy="11.245645"
         r="0.038929138" /><circle
         style="fill:none;stroke:#000000;stroke-width:0.0499999;stroke-dasharray:none;stroke-opacity:1"
         id="circle1150"
         cx="80.850838"
         cy="11.044045"
         r="0.038929138" /><circle
         style="fill:none;stroke:#000000;stroke-width:0.0499999;stroke-dasharray:none;stroke-opacity:1"
         id="circle1152"
         cx="80.850838"
         cy="10.849889"
         r="0.038929138" /><circle
         style="fill:none;stroke:#000000;stroke-width:0.0499999;stroke-dasharray:none;stroke-opacity:1"
         id="circle1154"
         cx="80.850838"
         cy="10.637789"
         r="0.038929138" /><circle
         style="fill:none;stroke:#000000;stroke-width:0.0499999;stroke-dasharray:none;stroke-opacity:1"
         id="circle1156"
         cx="80.850838"
         cy="10.448532"
         r="0.038929138" /><circle
         style="fill:none;stroke:#000000;stroke-width:0.0499999;stroke-dasharray:none;stroke-opacity:1"
         id="circle1158"
         cx="80.850838"
         cy="10.258171"
         r="0.038929138" /><circle
         style="fill:none;stroke:#000000;stroke-width:0.0499999;stroke-dasharray:none;stroke-opacity:1"
         id="circle1160"
         cx="80.850838"
         cy="12.194345"
         r="0.038929138" /><circle
         style="fill:none;stroke:#000000;stroke-width:0.0499999;stroke-dasharray:none;stroke-opacity:1"
         id="circle1162"
         cx="80.850838"
         cy="12.394782"
         r="0.038929138" /><circle
         style="fill:none;stroke:#000000;stroke-width:0.0499999;stroke-dasharray:none;stroke-opacity:1"
         id="circle1164"
         cx="80.850838"
         cy="12.594828"
         r="0.038929138" /><circle
         style="fill:none;stroke:#000000;stroke-width:0.0499999;stroke-dasharray:none;stroke-opacity:1"
         id="circle1166"
         cx="80.850838"
         cy="12.791515"
         r="0.038929138" /><circle
         style="fill:none;stroke:#000000;stroke-width:0.0499999;stroke-dasharray:none;stroke-opacity:1"
         id="circle1168"
         cx="80.850838"
         cy="12.98749"
         r="0.038929138" /><circle
         style="fill:none;stroke:#000000;stroke-width:0.0499999;stroke-dasharray:none;stroke-opacity:1"
         id="circle1170"
         cx="80.850838"
         cy="13.188721"
         r="0.038929138" /><circle
         style="fill:none;stroke:#000000;stroke-width:0.0499999;stroke-dasharray:none;stroke-opacity:1"
         id="circle1172"
         cx="80.850838"
         cy="10.065579"
         r="0.038929138" /></g></g><g
     inkscape:label="Capa 1"
     inkscape:groupmode="layer"
     id="layer1" /></svg>
